<svg width="74" height="74" viewBox="0 0 74 74" fill="none" xmlns="http://www.w3.org/2000/svg">
<path d="M21.5833 61.6667H21.016C16.0025 61.6389 13.5913 60.7232 13.5913 55.4692V42.6055C13.5913 38.8593 9.12049 37.1357 6.16666 36.8643V36.3525C9.14824 36.0843 13.5913 34.225 13.5913 30.5343V18.5308C13.5913 13.3046 16.0025 12.3611 21.016 12.3333H21.5833M52.4167 61.6667H52.984C57.9975 61.6389 60.4087 60.7232 60.4087 55.4692V42.6055C60.4087 38.8593 64.8795 37.1357 67.8333 36.8643V36.3525C64.8517 36.0843 60.4087 34.225 60.4087 30.5343V18.5308C60.4087 13.3046 57.9975 12.3611 52.984 12.3333H52.4167M27.75 49.3333V46.25M37 49.3333V46.25M46.25 49.3333V46.25" stroke="#00DC82" stroke-width="6" stroke-linecap="round" stroke-linejoin="round"/>
</svg>
